<svg width="200" height="120" viewBox="0 0 200 120" fill="none" xmlns="http://www.w3.org/2000/svg">
  <rect width="200" height="120" rx="16" fill="#4E8FAD"/>
  <circle cx="170" cy="20" r="50" fill="rgba(255,255,255,0.07)"/>
  <circle cx="30" cy="100" r="35" fill="rgba(255,255,255,0.05)"/>
  <!-- чемоданчик -->
  <rect x="62" y="28" width="76" height="64" rx="10" fill="#FFFFFF" opacity="0.95"/>
  <rect x="72" y="22" width="56" height="12" rx="6" fill="#FFFFFF" opacity="0.7"/>
  <!-- крест -->
  <rect x="88" y="48" width="24" height="8" rx="4" fill="#4E8FAD"/>
  <rect x="96" y="40" width="8" height="24" rx="4" fill="#4E8FAD"/>
  <!-- ручка -->
  <path d="M88 22 Q88 16 100 16 Q112 16 112 22" stroke="#FFFFFF" stroke-width="2.5" stroke-linecap="round" fill="none" opacity="0.5"/>
  <!-- таблетки слева -->
  <ellipse cx="36" cy="55" rx="14" ry="9" fill="#EBF4FF" opacity="0.9"/>
  <line x1="36" y1="46" x2="36" y2="64" stroke="#7AAFC9" stroke-width="1.5" opacity="0.6"/>
  <ellipse cx="28" cy="80" rx="10" ry="6" fill="#C8DFF7" opacity="0.8"/>
  <line x1="28" y1="74" x2="28" y2="86" stroke="#7AAFC9" stroke-width="1.5" opacity="0.6"/>
  <!-- таблетки справа -->
  <ellipse cx="164" cy="60" rx="14" ry="9" fill="#EBF4FF" opacity="0.9"/>
  <line x1="164" y1="51" x2="164" y2="69" stroke="#7AAFC9" stroke-width="1.5" opacity="0.6"/>
  <ellipse cx="172" cy="82" rx="10" ry="6" fill="#C8DFF7" opacity="0.8"/>
  <line x1="172" y1="76" x2="172" y2="88" stroke="#7AAFC9" stroke-width="1.5" opacity="0.6"/>
  <!-- звёздочки -->
  <circle cx="48" cy="30" r="2" fill="#FAE3A0" opacity="0.6"/>
  <circle cx="155" cy="30" r="1.5" fill="#FAE3A0" opacity="0.5"/>
  <circle cx="20" cy="50" r="1.5" fill="#FFFFFF" opacity="0.3"/>
</svg>
