<svg width="200" height="120" viewBox="0 0 200 120" fill="none" xmlns="http://www.w3.org/2000/svg">
  <rect width="200" height="120" rx="16" fill="#4E7D62"/>
  <circle cx="170" cy="15" r="55" fill="rgba(255,255,255,0.06)"/>
  <circle cx="20" cy="110" r="40" fill="rgba(255,255,255,0.04)"/>
  <!-- земля -->
  <ellipse cx="100" cy="108" rx="90" ry="12" fill="#3D6450" opacity="0.5"/>
  <!-- горшок центр -->
  <path d="M86 108 L80 80 L120 80 L114 108Z" fill="#D4A882"/>
  <rect x="78" y="76" width="44" height="8" rx="4" fill="#C49070"/>
  <!-- стебель центр -->
  <path d="M100 80 Q100 60 100 44" stroke="#7BAF8E" stroke-width="3" stroke-linecap="round"/>
  <!-- листья центр -->
  <path d="M100 60 Q88 52 82 44 Q94 46 100 60Z" fill="#B2D4BC"/>
  <path d="M100 54 Q112 46 118 38 Q106 40 100 54Z" fill="#7BAF8E"/>
  <path d="M100 44 Q96 34 100 26 Q104 34 100 44Z" fill="#B2D4BC" opacity="0.9"/>
  <!-- горшок левый -->
  <path d="M32 108 L28 88 L52 88 L48 108Z" fill="#C8A882" opacity="0.85"/>
  <rect x="26" y="84" width="28" height="6" rx="3" fill="#B89060" opacity="0.85"/>
  <path d="M40 84 Q40 68 40 58" stroke="#7BAF8E" stroke-width="2.5" stroke-linecap="round"/>
  <path d="M40 72 Q30 66 24 60 Q36 60 40 72Z" fill="#B2D4BC" opacity="0.9"/>
  <path d="M40 66 Q50 60 56 54 Q44 56 40 66Z" fill="#7BAF8E" opacity="0.9"/>
  <!-- горшок правый -->
  <path d="M152 108 L148 88 L172 88 L168 108Z" fill="#C8A882" opacity="0.85"/>
  <rect x="146" y="84" width="28" height="6" rx="3" fill="#B89060" opacity="0.85"/>
  <path d="M160 84 Q160 68 160 56" stroke="#7BAF8E" stroke-width="2.5" stroke-linecap="round"/>
  <path d="M160 70 Q150 64 144 56 Q156 58 160 70Z" fill="#B2D4BC" opacity="0.9"/>
  <path d="M160 64 Q170 58 176 50 Q164 53 160 64Z" fill="#7BAF8E" opacity="0.9"/>
  <!-- цветочек -->
  <circle cx="100" cy="26" r="5" fill="#F4C2D0" opacity="0.9"/>
  <circle cx="96" cy="22" r="3.5" fill="#F4C2D0" opacity="0.7"/>
  <circle cx="104" cy="22" r="3.5" fill="#F4C2D0" opacity="0.7"/>
  <circle cx="100" cy="26" r="2" fill="#FAE3A0"/>
  <!-- капли -->
  <path d="M22 42 Q22 36 26 36 Q30 36 30 42 Q30 47 26 47 Q22 47 22 42Z" fill="#7AAFC9" opacity="0.5"/>
  <path d="M170 50 Q170 45 173 45 Q176 45 176 50 Q176 54 173 54 Q170 54 170 50Z" fill="#7AAFC9" opacity="0.4"/>
</svg>
